Coordinates
nRows=17
nColumns=24

# SIMM Motion File Header:
name Coordinates
datacolumns 24
datarows 17
otherdata 1
range 1.16100000000000000000 1.17700000000000000000
endheader
time	pelvis_tx	pelvis_ty	pelvis_tz	pelvis_tilt	pelvis_list	pelvis_rotation	hip_flexion_r	hip_adduction_r	hip_rotation_r	knee_angle_r	ankle_angle_r	subtalar_angle_r	mtp_angle_r	hip_flexion_l	hip_adduction_l	hip_rotation_l	knee_angle_l	ankle_angle_l	subtalar_angle_l	mtp_angle_l	lumbar_extension	lumbar_bending	lumbar_rotation
      1.16100000000000000000	      0.00123104031343336200	      0.86680276648826926000	     -0.27455474007558128000	     19.87451770035589900000	     -2.83485433482959510000	      8.96815591607085060000	     -7.75180304837750180000	      8.58088092869170890000	      3.33640999419503050000	    -20.70868554696428300000	     10.54326165781894200000	     -0.00000000000018065774	     -0.00000000000024288249	     -5.21864171212319050000	     -9.65212070135598130000	      0.13631611141908312000	    -65.44902065906715900000	     -1.87177051810956450000	     -0.00000000000017627338	      0.00000000000060571790	    -27.26327542672993300000	      8.30183554326210070000	     -3.98061522089413740000
      1.16200000000000010000	      0.00283631291232147330	      0.86728613200011451000	     -0.27452169021703787000	     19.89128958178996200000	     -2.79377322538699470000	      8.90377163339744900000	     -7.97365257355295220000	      8.53287328680754700000	      3.40216335189017640000	    -20.56291576050369600000	     10.55248090124273800000	     -0.00000000000018066488	     -0.00000000000024399001	     -5.10531104079238760000	     -9.58029182112192500000	      0.09122627286044580900	    -65.33926143911458000000	     -1.67179983591390680000	     -0.00000000000017671666	      0.00000000000060648890	    -27.29031582251154100000	      8.23256354852696860000	     -3.91563272881012600000
      1.16300000000000000000	      0.00444037246705090030	      0.86777036870056090000	     -0.27448939192983507000	     19.90886856140861000000	     -2.75182949076283690000	      8.83782037353496190000	     -8.19724641776761410000	      8.48242461099343710000	      3.46844375571995970000	    -20.41430160135350700000	     10.55291029056454200000	     -0.00000000000018067777	     -0.00000000000024510867	     -4.99557100859383050000	     -9.50706239545225710000	      0.04408911767635691200	    -65.22279681328834000000	     -1.47499500343941920000	     -0.00000000000017718747	      0.00000000000060730043	    -27.31829830612888400000	      8.16209033408259540000	     -3.85020924907619920000
      1.16400000000000010000	      0.00604402767372790900	      0.86825489579720794000	     -0.27445734416641243000	     19.92671657375545600000	     -2.70959821441148250000	      8.77134678794276110000	     -8.42142170166207470000	      8.43116225720266680000	      3.53489984159464130000	    -20.26473931797340800000	     10.55040972851903000000	     -0.00000000000018069256	     -0.00000000000024623106	     -4.88702785610598590000	     -9.43336612130403120000	     -0.00373047638289363080	    -65.10409705217084300000	     -1.27924545420525910000	     -0.00000000000017766746	      0.00000000000060812546	    -27.34659481902481200000	      8.09121671306845690000	     -3.78463877345894860000
      1.16500000000000000000	      0.00764720801356725320	      0.86873926806434776000	     -0.27442538701883817000	     19.94467119860963700000	     -2.66710753920257380000	      8.70427767317295320000	     -8.64585795938003800000	      8.37908698646085880000	      3.60164495366656730000	    -20.11456996555647700000	     10.54614183051685200000	     -0.00000000000018069574	     -0.00000000000024737130	     -4.77949203009466480000	     -9.35923354268638440000	     -0.05232251125039659400	    -64.98318435184099000000	     -1.08480555122156310000	     -0.00000000000017814792	      0.00000000000060895383	    -27.37503916559538600000	      8.01991226845171920000	     -3.71887617130376080000
      1.16600000000000010000	      0.00924896375289502820	      0.86922317584296682000	     -0.27439370171880911000	     19.96294566098583400000	     -2.62383866742096440000	      8.63542197087026150000	     -8.87107713856869930000	      8.32457296486588840000	      3.66925714433028860000	    -19.96257940602890100000	     10.53657192464467600000	     -0.00000000000018066405	     -0.00000000000024856508	     -4.67497818351282210000	     -9.28379205066040210000	     -0.10323186854270135000	    -64.85563283387398300000	     -0.89429458698908881000	     -0.00000000000017862978	      0.00000000000060979220	    -27.40392701318992900000	      7.94731535302712720000	     -3.65253718953470320000
      1.16700000000000000000	      0.01085071949222244700	      0.86970708362158577000	     -0.27436201641878011000	     19.98122012336202900000	     -2.58056979563936430000	      8.56656626856758410000	     -9.09629631775731080000	      8.27005894327093040000	      3.73686933499399480000	    -19.81058884650136100000	     10.52700201877250100000	     -0.00000000000018063236	     -0.00000000000024975886	     -4.57046433693100160000	     -9.20835055863443590000	     -0.15414122583499479000	    -64.72808131590700500000	     -0.70378362275665696000	     -0.00000000000017911163	      0.00000000000061063057	    -27.43281486078446800000	      7.87471843760255120000	     -3.58619820776566070000
      1.16800000000000010000	      0.01245100593438894400	      0.87018929422690483000	     -0.27433009630969496000	     19.99934782188151400000	     -2.53665356977067850000	      8.49588120338808930000	     -9.32134872150256830000	      8.21334738172040170000	      3.80568670780008800000	    -19.65802126223382400000	     10.51856111677761700000	     -0.00000000000018059716	     -0.00000000000025092501	     -4.46817422703631270000	     -9.13181780927282990000	     -0.20743569401802534000	    -64.59457730349718900000	     -0.51780514532887345000	     -0.00000000000017958650	      0.00000000000061142331	    -27.46166076472302500000	      7.80084399508070710000	     -3.51920568405094290000
      1.16900000000000000000	      0.01405080261083466000	      0.87067093910779048000	     -0.27429809793092447000	     20.01742659911542800000	     -2.49252155920630920000	      8.42458635058300590000	     -9.54634553343330870000	      8.15590330685136070000	      3.87490580798695870000	    -19.50526133638632900000	     10.51049654940850100000	     -0.00000000000018056078	     -0.00000000000025208196	     -4.36662536270403390000	     -9.05492130746603150000	     -0.26152519916462313000	    -64.45908912627312800000	     -0.33333749683603542000	     -0.00000000000018005905	      0.00000000000061220085	    -27.49049268744291300000	      7.72654371019312690000	     -3.45199531302101810000
      1.17000000000000020000	      0.01564951966692585200	      0.87115075652827423000	     -0.27426597154252946000	     20.03521416242913500000	     -2.44814669018784370000	      8.35225980949376810000	     -9.77082847505681510000	      8.09724187087263840000	      3.94472147448078840000	    -19.35257082787238000000	     10.50649091562487500000	     -0.00000000000018052157	     -0.00000000000025324016	     -4.26614383527559400000	     -8.97758615946465350000	     -0.31707222786792205000	    -64.31991986902514200000	     -0.15236033553243705000	     -0.00000000000018051335	      0.00000000000061294703	    -27.51905654600684800000	      7.65161879660903830000	     -3.38444905487451210000
      1.17100000000000000000	      0.01724715710266181900	      0.87162874648835575000	     -0.27423371714451000000	     20.05271051182263200000	     -2.40352896271530230000	      8.27890158012041330000	     -9.99479754637299140000	      8.03736307378426500000	      4.01513370728154320000	    -19.19994973669204400000	     10.50654421542671500000	     -0.00000000000018047952	     -0.00000000000025439960	     -4.16672964475103220000	     -8.89981236526873150000	     -0.37407678012788903000	    -64.17706953175331800000	      0.02512633858186140100	     -0.00000000000018094941	      0.00000000000061366185	    -27.54735234041481800000	      7.57606925432847870000	     -3.31656690961145540000
      1.17200000000000020000	      0.01884479453839813700	      0.87210673644843750000	     -0.27420146274649060000	     20.07020686121613200000	     -2.35891123524275060000	      8.20554335074704080000	    -10.21876661768921800000	      7.97748427669587650000	      4.08554594008231400000	    -19.04732864551167300000	     10.50659751522856000000	     -0.00000000000018043747	     -0.00000000000025555904	     -4.06731545422644910000	     -8.82203857107279350000	     -0.43108133238787066000	    -64.03421919448145200000	      0.20261301269619350000	     -0.00000000000018138546	      0.00000000000061437668	    -27.57564813482279200000	      7.50051971204790120000	     -3.24868476434838320000
      1.17300000000000000000	      0.02043998617456694400	      0.87258062948833237000	     -0.27416873255504953000	     20.08724642398381700000	     -2.31421222318007260000	      8.13014725976479720000	    -10.44167398844200400000	      7.91561473078934250000	      4.15761954610244630000	    -18.89497864447428900000	     10.51520148687750500000	     -0.00000000000018036067	     -0.00000000000025675913	     -3.97015120599035410000	     -8.74401816668344800000	     -0.49114659427008206000	    -63.88381701106810300000	      0.37146602692704317000	     -0.00000000000018185776	      0.00000000000061509416	    -27.60351758369079500000	      7.42413012695792050000	     -3.17997970246659230000
      1.17400000000000020000	      0.02203517781073610300	      0.87305452252822735000	     -0.27413600236360847000	     20.10428598675150600000	     -2.26951321111738480000	      8.05475116878253950000	    -10.66458135919484100000	      7.85374518488279530000	      4.22969315212259470000	    -18.74262864343687000000	     10.52380545852645200000	     -0.00000000000018028387	     -0.00000000000025795922	     -3.87298695775423770000	     -8.66599776229408650000	     -0.55121185615230683000	    -63.73341482765472700000	      0.54031904115793028000	     -0.00000000000018233006	      0.00000000000061581165	    -27.63138703255880200000	      7.34774054186792380000	     -3.11127464058478600000
      1.17500000000000000000	      0.02362907211556615500	      0.87352669196144717000	     -0.27410289244362968000	     20.12136979058068700000	     -2.22493535604829380000	      7.97832237812126270000	    -10.88729608776919900000	      7.79108680095061960000	      4.30303226161267730000	    -18.59011616263402900000	     10.53332954917020100000	     -0.00000000000018019317	     -0.00000000000025918429	     -3.77726404259494240000	     -8.58812557431130230000	     -0.61286097145523810000	    -63.57919128393781700000	      0.70425849473593138000	     -0.00000000000018280989	      0.00000000000061654433	    -27.65933703155926800000	      7.27110703256565130000	     -3.04203296264925700000
      1.17600000000000020000	      0.02522166908905779800	      0.87399713778799204000	     -0.27406940279511322000	     20.13849783547136200000	     -2.18047865797277970000	      7.90086088778093300000	    -11.10981817416518100000	      7.72763957899278700000	      4.37763687457272970000	    -18.43744120206569900000	     10.54377375880875600000	     -0.00000000000018008858	     -0.00000000000026043435	     -3.68298246051242770000	     -8.51040160273506530000	     -0.67609394017890456000	    -63.42114637991732500000	      0.86328438766111493000	     -0.00000000000018329727	      0.00000000000061729222	    -27.68736758069220400000	      7.19422959905107100000	     -2.97225466865997360000
      1.17700000000000000000	      0.02681426606254909100	      0.87446758361453669000	     -0.27403591314659675000	     20.15562588036203800000	     -2.13602195989727580000	      7.82339939744062200000	    -11.33234026056111100000	      7.66419235703496770000	      4.45224148753276610000	    -18.28476624149740500000	     10.55421796844730900000	     -0.00000000000017998399	     -0.00000000000026168440	     -3.58870087842993390000	     -8.43267763115884430000	     -0.73932690890255703000	    -63.26310147589686000000	      1.02231028058626320000	     -0.00000000000018378465	      0.00000000000061804010	    -27.71539812982513600000	      7.11735216553650660000	     -2.90247637467070560000
